<svg width="596" height="581" viewBox="0 0 596 581" fill="none" xmlns="http://www.w3.org/2000/svg">
<path d="M300.5 297.75C300.72 298.292 300.918 298.851 301.093 299.428C301.218 300.035 301.317 300.655 301.39 301.288C301.405 301.943 301.392 302.606 301.348 303.277C301.243 303.96 301.105 304.645 300.936 305.332C300.702 306.02 300.435 306.704 300.134 307.384C299.768 308.052 299.368 308.711 298.935 309.359C298.436 309.983 297.906 310.59 297.344 311.182C296.72 311.736 296.066 312.267 295.382 312.777C294.643 313.236 293.877 313.668 293.085 314.072C292.245 314.414 291.383 314.724 290.5 315C289.579 315.205 288.641 315.373 287.688 315.504C286.709 315.555 285.72 315.565 284.721 315.535C283.711 315.419 282.697 315.26 281.681 315.058C280.668 314.767 279.659 314.432 278.656 314.052C277.671 313.582 276.699 313.069 275.739 312.511C274.814 311.865 273.909 311.177 273.025 310.446C272.191 309.632 271.385 308.779 270.608 307.885C269.896 306.917 269.219 305.912 268.578 304.873C268.016 303.768 267.495 302.633 267.018 301.469C266.63 300.252 266.291 299.013 266 297.75C265.809 296.45 265.671 295.134 265.586 293.804C265.608 292.452 265.686 291.095 265.82 289.731C266.067 288.364 266.371 287 266.732 285.64C267.209 284.295 267.742 282.964 268.333 281.645C269.037 280.361 269.797 279.101 270.613 277.863C271.537 276.679 272.513 275.529 273.542 274.41C274.672 273.365 275.849 272.361 277.073 271.398C278.387 270.527 279.741 269.705 281.137 268.933C282.607 268.267 284.11 267.659 285.647 267.107C287.24 266.675 288.858 266.306 290.5 266C292.18 265.824 293.873 265.716 295.58 265.675C297.304 265.771 299.03 265.938 300.759 266.175C302.482 266.553 304.196 267.002 305.902 267.523C307.577 268.184 309.232 268.916 310.867 269.718C312.448 270.657 313.997 271.663 315.514 272.736C316.955 273.939 318.352 275.204 319.706 276.531C320.961 277.976 322.163 279.476 323.311 281.032C324.342 282.69 325.309 284.395 326.212 286.146C326.981 287.982 327.678 289.854 328.304 291.762C328.78 293.733 329.179 295.729 329.5 297.75C329.661 299.809 329.739 301.88 329.736 303.964C329.565 306.06 329.31 308.155 328.97 310.25C328.461 312.329 327.866 314.393 327.187 316.443C326.34 318.45 325.41 320.428 324.398 322.378C323.224 324.258 321.971 326.095 320.64 327.89C319.159 329.589 317.606 331.232 315.98 332.821C314.22 334.288 312.396 335.688 310.51 337.021C308.507 338.21 306.452 339.322 304.344 340.357C302.143 341.229 299.903 342.015 297.622 342.715C295.274 343.236 292.9 343.664 290.5 344C288.062 344.146 285.612 344.195 283.151 344.147C280.683 343.902 278.219 343.558 275.76 343.115C273.325 342.474 270.91 341.735 268.516 340.897C266.178 339.864 263.876 338.737 261.61 337.513C259.433 336.104 257.307 334.605 255.233 333.017C253.277 331.257 251.387 329.415 249.564 327.492C247.886 325.416 246.288 323.269 244.769 321.051C243.421 318.704 242.164 316.298 240.998 313.834C240.023 311.268 239.149 308.659 238.375 306.006C237.809 303.281 237.351 300.529 237 297.75C236.869 294.933 236.85 292.105 236.943 289.267C237.261 286.427 237.694 283.594 238.239 280.77C239.012 277.978 239.896 275.213 240.893 272.474C242.111 269.805 243.437 267.18 244.871 264.599C246.515 262.123 248.26 259.709 250.107 257.357C252.145 255.143 254.275 253.007 256.497 250.948C258.888 249.06 261.359 247.264 263.908 245.559C266.6 244.052 269.355 242.65 272.175 241.352C275.106 240.275 278.085 239.312 281.11 238.464C284.211 237.854 287.341 237.366 290.5 237C293.697 236.884 296.902 236.895 300.117 237.032C303.329 237.425 306.531 237.945 309.721 238.594C312.868 239.498 315.984 240.528 319.067 241.683C322.068 243.087 325.016 244.611 327.913 246.256C330.686 248.135 333.389 250.126 336.02 252.23C338.491 254.548 340.874 256.966 343.167 259.485C345.266 262.192 347.261 264.986 349.151 267.866C350.816 270.903 352.364 274.009 353.793 277.185C354.973 280.481 356.025 283.828 356.947 287.226C357.602 290.704 358.119 294.212 358.5 297.75C358.601 301.326 358.561 304.909 358.379 308.501C357.912 312.086 357.303 315.656 356.551 319.211C355.516 322.714 354.341 326.18 353.026 329.609C351.438 332.94 349.715 336.212 347.859 339.424C345.745 342.496 343.508 345.486 341.147 348.397C338.55 351.125 335.844 353.754 333.026 356.282C330.004 358.593 326.887 360.785 323.675 362.86C320.294 364.685 316.837 366.378 313.305 367.938C309.644 369.222 305.928 370.361 302.158 371.357C298.303 372.057 294.417 372.604 290.5 373C286.545 373.086 282.583 373.016 278.615 372.79C274.658 372.249 270.719 371.551 266.798 370.696C262.939 369.53 259.123 368.21 255.35 366.736C251.687 364.962 248.092 363.041 244.565 360.975C241.195 358.626 237.916 356.142 234.727 353.523C231.741 350.648 228.866 347.653 226.102 344.538C223.581 341.199 221.19 337.759 218.93 334.217C216.946 330.491 215.109 326.684 213.417 322.796C212.03 318.769 210.802 314.684 209.732 310.542C208.988 306.31 208.41 302.046 208 297.75C207.929 293.416 208.029 289.076 208.3 284.731C208.915 280.402 209.701 276.094 210.659 271.808C211.957 267.593 213.422 263.426 215.054 259.308C217.014 255.315 219.132 251.396 221.41 247.553C223.994 243.886 226.724 240.318 229.6 236.85C232.754 233.606 236.038 230.485 239.451 227.487C243.105 224.755 246.868 222.166 250.742 219.72C254.812 217.578 258.97 215.595 263.214 213.772C267.606 212.282 272.059 210.965 276.573 209.821C281.182 209.032 285.824 208.425 290.5 208C295.213 207.944 299.931 208.073 304.653 208.389C309.355 209.078 314.031 209.953 318.682 211.014C323.254 212.443 327.771 214.053 332.233 215.844C336.558 217.989 340.8 220.306 344.958 222.795C348.924 225.613 352.78 228.59 356.526 231.724C360.028 235.156 363.395 238.728 366.629 242.439C369.571 246.409 372.358 250.496 374.99 254.7C377.291 259.116 379.419 263.623 381.373 268.223C382.966 272.981 384.372 277.803 385.59 282.689C386.423 287.675 387.06 292.695 387.5 297.75C387.542 302.843 387.382 307.939 387.022 313.038C386.259 318.111 385.295 323.156 384.132 328.173C382.571 333.1 380.816 337.967 378.866 342.775C376.535 347.43 374.02 351.995 371.321 356.47C368.267 360.733 365.044 364.878 361.653 368.903C357.942 372.662 354.081 376.276 350.072 379.744C345.787 382.897 341.377 385.883 336.841 388.699C332.081 391.16 327.223 393.433 322.267 395.519C317.144 397.214 311.954 398.708 306.695 400C301.332 400.878 295.934 401.545 290.5 402C285.028 402.027 279.554 401.838 274.078 401.433C268.632 400.596 263.219 399.544 257.837 398.277C252.553 396.585 247.336 394.684 242.184 392.575C237.197 390.059 232.309 387.346 227.519 384.436C222.957 381.147 218.524 377.678 214.221 374.029C210.204 370.039 206.344 365.891 202.641 361.583C199.276 356.983 196.093 352.249 193.091 347.383C190.472 342.278 188.053 337.07 185.836 331.757C184.038 326.269 182.455 320.71 181.089 315.079C180.166 309.34 179.47 303.563 179 297.75C178.988 291.899 179.207 286.047 179.657 280.194C180.568 274.376 181.708 268.593 183.078 262.847C184.901 257.207 186.947 251.639 189.215 246.143C191.916 240.825 194.828 235.613 197.948 230.507C201.472 225.648 205.187 220.927 209.094 216.344C213.363 212.07 217.8 207.964 222.405 204.025C227.321 200.45 232.378 197.069 237.576 193.881C243.025 191.103 248.584 188.54 254.252 186.191C260.106 184.289 266.034 182.618 272.037 181.178C278.153 180.211 284.308 179.485 290.5 179C296.73 179.003 302.96 179.252 309.19 179.746C315.38 180.731 321.532 181.96 327.644 183.433C333.639 185.388 339.558 187.578 345.399 190.005C351.048 192.892 356.583 196.001 362.004 199.333C367.162 203.092 372.171 207.053 377.032 211.218C381.564 215.765 385.917 220.49 390.09 225.394C393.876 230.625 397.456 236.006 400.829 241.535C403.766 247.329 406.474 253.238 408.954 259.262C410.959 265.48 412.718 271.777 414.233 278.153C415.244 284.646 416 291.178 416.5 297.75C416.482 304.36 416.204 310.968 415.665 317.574C414.606 324.137 413.288 330.657 411.712 337.134C409.626 343.486 407.291 349.755 404.705 355.94C401.632 361.921 398.325 367.779 394.782 373.516C390.789 378.971 386.581 384.269 382.159 389.409C377.333 394.198 372.319 398.797 367.118 403.205C361.571 407.202 355.867 410.98 350.007 414.539C343.868 417.635 337.609 420.488 331.228 423.099C324.645 425.207 317.979 427.055 311.231 428.643C304.361 429.7 297.451 430.485 290.5 431C283.511 430.967 276.525 430.659 269.542 430.076C262.607 428.942 255.718 427.536 248.875 425.857C242.168 423.64 235.549 421.159 229.018 418.415C222.707 415.157 216.525 411.651 210.473 407.898C204.719 403.669 199.133 399.215 193.715 394.535C188.667 389.431 183.822 384.129 179.179 378.629C174.972 372.767 170.996 366.74 167.252 360.548C163.997 354.065 160.998 347.455 158.256 340.719C156.045 333.77 154.108 326.735 152.446 319.616C151.345 312.369 150.53 305.08 150 297.75C150.048 290.382 150.386 283.018 151.014 275.658C152.221 268.351 153.716 261.093 155.498 253.885C157.846 246.821 160.472 239.852 163.376 232.977C166.819 226.334 170.523 219.829 174.487 213.462C178.95 207.41 183.651 201.535 188.588 195.838C193.971 190.533 199.562 185.442 205.359 180.564C211.538 176.145 217.888 171.971 224.41 168.042C231.238 164.628 238.198 161.484 245.291 158.61C252.605 156.297 260.008 154.272 267.5 152.535C275.124 151.39 282.791 150.545 290.5 150C298.247 150.063 305.989 150.43 313.727 151.103C321.406 152.384 329.032 153.967 336.605 155.852C344.025 158.332 351.345 161.103 358.565 164.166C365.538 167.795 372.367 171.696 379.05 175.872C385.4 180.57 391.563 185.517 397.538 190.712C403.101 196.373 408.439 202.252 413.551 208.348C418.181 214.842 422.553 221.515 426.668 228.369C430.241 235.541 433.529 242.852 436.535 250.3C438.952 257.98 441.065 265.752 442.876 273.616C444.066 281.617 444.941 289.662 445.5 297.75C445.422 305.876 445.025 313.997 444.308 322.111C442.952 330.162 441.281 338.157 439.293 346.096C436.681 353.872 433.765 361.542 430.544 369.106C426.73 376.411 422.63 383.562 418.244 390.561C413.31 397.209 408.117 403.66 402.665 409.915C396.724 415.735 390.557 421.319 384.164 426.667C377.354 431.507 370.357 436.077 363.173 440.378C355.655 444.109 347.995 447.543 340.19 450.68C332.145 453.2 324.004 455.402 315.768 457.286C307.39 458.521 298.968 459.426 290.5 460C281.994 459.907 273.496 459.48 265.005 458.719C256.581 457.289 248.218 455.529 239.914 453.438C231.782 450.695 223.762 447.634 215.853 444.254C208.217 440.254 200.742 435.956 193.427 431.359C186.481 426.191 179.742 420.752 173.209 415.041C167.131 408.822 161.301 402.367 155.718 395.675C150.667 388.55 145.898 381.23 141.412 373.714C137.522 365.852 133.943 357.841 130.675 349.68C128.052 341.27 125.761 332.761 123.803 324.152C122.524 315.398 121.589 306.597 121 297.75C121.107 288.865 121.564 279.989 122.371 271.121C123.874 262.325 125.723 253.593 127.917 244.924C130.791 236.436 133.997 228.065 137.536 219.811C141.721 211.844 146.218 204.046 151.025 196.416C156.429 189.172 162.114 182.144 168.082 175.332C174.58 168.997 181.324 162.92 188.314 157.102C195.754 151.84 203.398 146.874 211.245 142.203C219.451 138.153 227.813 134.429 236.329 131.03C245.105 128.304 253.983 125.925 262.964 123.892C272.095 122.568 281.274 121.604 290.5 121C299.764 121.122 309.018 121.609 318.263 122.46C327.431 124.037 336.533 125.975 345.567 128.272C354.411 131.277 363.132 134.629 371.73 138.327C380.028 142.697 388.15 147.392 396.096 152.41C403.638 158.048 410.954 163.98 418.044 170.206C424.637 176.982 430.96 184.014 437.013 191.302C442.486 199.058 447.651 207.025 452.507 215.203C456.715 223.754 460.585 232.466 464.115 241.339C466.944 250.48 469.412 259.726 471.519 269.079C472.887 278.588 473.881 288.145 474.5 297.75C474.363 307.393 473.846 317.026 472.951 326.647C471.299 336.188 469.273 345.658 466.873 355.057C463.737 364.257 460.24 373.329 456.383 382.272C451.827 390.901 446.935 399.346 441.705 407.607C435.832 415.447 429.654 423.052 423.171 430.421C416.116 437.272 408.795 443.841 401.209 450.128C393.138 455.812 384.847 461.175 376.338 466.217C367.442 470.584 358.38 474.598 349.151 478.261C339.646 481.192 330.03 483.749 320.305 485.929C310.419 487.342 300.485 488.366 290.5 489C280.478 488.848 270.467 488.302 260.468 487.361C250.556 485.636 240.717 483.522 230.952 481.019C221.396 477.751 211.974 474.109 202.687 470.093C193.727 465.352 184.958 460.261 176.382 454.821C168.243 448.713 160.35 442.288 152.703 435.547C145.594 428.214 138.779 420.605 132.256 412.721C126.362 404.334 120.801 395.72 115.573 386.88C111.047 377.639 106.888 368.227 103.094 358.642C100.059 348.771 97.4147 338.786 95.1599 328.689C93.7022 318.427 92.6489 308.114 92 297.75C92.167 287.348 92.7429 276.96 93.7278 266.584C95.5273 256.3 97.7302 246.092 100.336 235.962C103.736 226.05 107.523 216.278 111.697 206.645C116.624 197.354 121.913 188.262 127.564 179.37C133.907 170.934 140.578 162.752 147.576 154.826C155.189 147.46 163.086 140.398 171.268 133.641C179.97 127.536 188.907 121.776 198.079 116.363C207.664 111.679 217.427 107.374 227.368 103.449C237.604 100.311 247.957 97.578 258.427 95.2492C269.066 93.7468 279.757 92.6638 290.5 92C301.281 92.1819 312.048 92.7876 322.8 93.817C333.457 95.6906 344.033 97.982 354.528 100.691C364.797 104.222 374.919 108.154 384.896 112.487C394.519 117.6 403.934 123.087 413.141 128.949C421.876 135.527 430.345 142.444 438.55 149.7C446.174 157.591 453.482 165.776 460.474 174.256C466.791 183.275 472.748 192.535 478.346 202.037C483.19 211.967 487.64 222.081 491.696 232.377C494.937 242.979 497.759 253.701 500.162 264.543C501.709 275.559 502.821 286.628 503.5 297.75C503.303 308.91 502.668 320.055 501.594 331.184C499.646 342.213 497.266 353.158 494.454 364.019C490.792 374.643 486.715 385.116 482.222 395.437C476.925 405.391 471.24 415.13 465.167 424.653C458.354 433.685 451.191 442.443 443.677 450.927C435.507 458.808 427.033 466.362 418.255 473.59C408.921 480.117 399.338 486.272 389.504 492.056C379.23 497.059 368.766 501.654 358.113 505.841C347.146 509.185 336.055 512.095 324.841 514.572C313.449 516.164 302.001 517.306 290.5 518C278.961 517.788 267.438 517.123 255.932 516.004C244.53 513.983 233.217 511.514 221.991 508.599C211.011 504.806 200.187 500.583 189.521 495.932C179.236 490.449 169.174 484.566 159.336 478.282C150.005 471.234 140.959 463.825 132.196 456.054C124.058 447.605 116.257 438.843 108.795 429.767C102.057 420.117 95.7033 410.21 89.7339 400.045C84.5726 389.426 79.8325 378.612 75.5137 367.603C72.0668 356.271 69.0679 344.812 66.517 333.225C64.8808 321.456 63.7085 309.631 63 297.75C63.2266 285.831 63.9216 273.931 65.0848 262.048C67.1805 250.274 69.7375 238.592 72.7556 227.001C76.6805 215.664 81.0479 204.491 85.8581 193.48C91.5266 182.864 97.608 172.479 104.102 162.324C111.385 152.696 119.041 143.361 127.07 134.32C135.797 125.924 144.848 117.877 154.222 110.179C164.187 103.231 174.417 96.6789 184.913 90.5242C195.877 85.2039 207.041 80.3187 218.406 75.8685C230.104 72.3186 241.932 69.2311 253.89 66.6062C266.037 64.9254 278.24 63.7234 290.5 63C302.798 63.2415 315.077 63.9662 327.336 65.1741C339.482 67.3438 351.533 69.9893 363.49 73.1105C375.182 77.1667 386.706 81.6793 398.062 86.6483C409.009 92.5022 419.717 98.7818 430.187 105.487C440.114 113.005 449.737 120.907 459.057 129.193C467.71 138.199 476.004 147.538 483.936 157.211C491.096 167.491 497.845 178.045 504.186 188.872C509.665 200.18 514.695 211.695 519.277 223.416C522.93 235.479 526.106 247.675 528.805 260.006C530.53 272.53 531.762 285.111 532.5 297.75C532.244 310.427 531.489 323.084 530.237 335.721C527.993 348.239 525.259 360.659 522.035 372.98C517.847 385.029 513.189 396.903 508.062 408.603C502.022 419.881 495.544 430.913 488.628 441.699C480.875 451.923 472.727 461.835 464.183 471.433C454.898 480.345 445.271 488.884 435.301 497.051C424.705 504.422 413.828 511.37 402.67 517.895C391.017 523.533 379.152 528.709 367.074 533.422C354.646 537.178 342.081 540.442 329.378 543.215C316.478 544.985 303.518 546.247 290.5 547C277.444 546.729 264.409 545.944 251.395 544.647C238.505 542.33 225.716 539.507 213.029 536.18C200.625 531.861 188.4 527.058 176.355 521.771C164.746 515.547 153.391 508.871 142.29 501.744C131.767 493.756 121.568 485.361 111.69 476.56C102.521 466.996 93.7356 457.081 85.3333 446.812C77.752 435.901 70.6058 424.7 63.8948 413.211C58.0979 401.213 52.7773 388.998 47.933 376.565C44.0741 363.772 40.721 350.837 37.874 337.762C36.0594 324.485 34.7681 311.148 34 297.75C34.2862 284.315 35.1002 270.902 36.4419 257.511C38.8337 244.249 41.7448 231.091 45.175 218.039C49.6252 205.278 54.5732 192.703 60.0189 180.314C66.4291 168.374 73.3031 156.695 80.641 145.279C88.8637 134.458 97.5046 123.97 106.564 113.814C116.406 104.387 126.61 95.3551 137.176 86.7179C148.403 78.9258 159.927 71.5815 171.747 64.685C184.09 58.7292 196.656 53.2635 209.445 48.2879C222.603 44.3259 235.906 40.8844 249.354 37.9633C263.008 36.1041 276.723 34.783 290.5 34C304.315 34.3011 318.106 35.1448 331.873 36.5311C345.508 38.997 359.034 41.9966 372.451 45.5298C385.568 50.1114 398.493 55.2045 411.227 60.8091C423.499 67.4048 435.501 74.4769 447.233 82.0256C458.351 90.4833 469.128 99.3705 479.563 108.687C489.247 118.808 498.525 129.301 507.397 140.165C515.4 151.707 522.943 163.554 530.025 175.706C536.14 188.393 541.75 201.309 546.857 214.454C550.922 227.978 554.452 241.65 557.448 255.47C559.351 269.501 560.702 283.594 561.5 297.75C561.184 311.944 560.311 326.113 558.88 340.257C556.34 354.264 553.252 368.159 549.615 381.942C544.902 395.414 539.664 408.69 533.901 421.769C527.12 434.372 519.849 446.697 512.09 458.744C503.397 470.161 494.264 481.226 484.689 491.939C474.29 501.881 463.509 511.406 452.347 520.513C440.488 528.727 428.318 536.467 415.835 543.735C402.804 550.008 389.537 555.764 376.036 561.002C362.147 565.17 348.106 568.789 333.914 571.858C319.507 573.807 305.035 575.187 290.5 576C275.927 575.669 261.38 574.766 246.859 573.29C232.48 570.676 218.216 567.5 204.068 563.76C190.239 558.916 176.613 553.533 163.19 547.61C150.256 540.644 137.607 533.176 125.244 525.205C113.53 516.278 102.176 506.898 91.1843 497.066C80.9847 486.388 71.2139 475.318 61.8718 463.858C53.4471 451.684 45.5084 439.191 38.0556 426.377C31.6231 413.001 25.7221 399.384 20.3524 385.526C16.0813 371.272 12.3742 356.863 9.23105 342.299C7.238 327.514 5.82766 312.664 5 297.75C5.34581 282.798 6.2788 267.873 7.79892 252.975C10.4869 238.223 13.7521 223.591 17.5943 209.078C22.57 194.893 28.0985 180.916 34.1797 167.148C41.3317 153.883 48.9983 140.911 57.1795 128.233C66.342 116.22 75.9681 104.578 86.0578 93.3078C97.0145 82.8506 108.372 72.8335 120.13 63.2564C132.62 54.6209 145.437 46.484 158.582 38.8458C172.303 32.2544 186.27 26.2083 200.483 20.7072C215.103 16.3332 229.881 12.5375 244.817 9.32031C259.979 7.28266 275.206 5.84256 290.5 5C305.832 5.36071 321.135 6.32342 336.41 7.88815C351.533 10.6502 366.534 14.0039 381.413 17.9492C395.954 23.0562 410.28 28.7298 424.393 34.9699C437.989 42.3073 451.284 50.1721 464.279 58.5641C476.589 67.9616 488.519 77.834 500.069 88.1812C510.784 99.4167 521.047 111.063 530.859 123.119C539.705 135.924 548.04 149.064 555.864 162.54C562.614 176.606 568.806 190.923 574.438 205.493C578.915 220.478 582.799 235.625 586.09 250.933C588.173 266.471 589.643 282.077 590.5 297.75" stroke="#D4C3F2" stroke-width="10"/>
</svg>
