<svg width="173" height="104" viewBox="0 0 173 104" fill="none" xmlns="http://www.w3.org/2000/svg">
<path d="M153.474 85.4194C154.862 79.5317 152.418 75.4214 148.475 72.4776C144.975 69.867 140.976 67.6452 136.921 66.0899C128.645 62.9239 120.036 60.8132 110.538 59.98C110.038 62.0352 109.538 64.0903 109.038 66.1454C107.761 71.9221 106.983 77.8654 105.094 83.3643C101.706 93.0846 94.5407 99.1945 84.6537 102.083C74.5446 105.027 65.1576 100.972 60.603 91.3627C53.1044 75.477 58.1034 61.5908 70.5454 53.4257C74.2114 51.0373 78.4329 49.4265 82.5987 47.9268C86.0425 46.6492 89.7085 46.0938 94.041 44.9829C93.5411 42.9278 93.4853 40.7059 92.43 39.0951C90.0416 35.3736 87.7643 31.2634 84.4316 28.5972C65.713 13.6002 44.6615 7.87902 21.055 14.6555C15.7783 16.1552 10.6128 18.2103 6.78022 22.6539C6.11369 23.4315 3.89174 23.4315 2.7253 22.9872C0.781233 22.2095 0.114697 19.9323 1.05896 18.377C2.78084 15.6553 4.78056 12.8225 7.28007 10.8785C17.6669 2.88003 29.8311 -0.286054 42.7175 0.213848C55.826 0.71375 68.2127 4.32421 79.8215 10.5452C92.0413 17.0995 101.095 26.3754 105.761 39.6506C106.372 41.3725 107.149 43.0944 108.149 45.5939C123.813 49.0377 140.421 51.1484 155.696 60.8132C156.084 57.0361 156.251 54.2589 156.64 51.5372C156.973 49.0932 158.528 47.5935 160.861 46.927C163.083 46.316 166.082 47.9823 166.971 50.5374C167.804 52.9814 168.582 55.4809 168.86 58.0359C170.137 69.0338 171.304 80.0872 172.47 91.1406C172.581 92.2515 172.637 93.3623 172.526 94.4732C172.137 98.6391 169.193 101.527 165.083 100.916C153.029 99.0834 141.032 96.9172 129.034 94.862C127.979 94.6954 126.59 94.4177 125.979 93.6956C124.868 92.3625 123.702 90.7518 123.591 89.141C123.48 88.1412 125.035 86.3637 126.201 86.0304C128.979 85.1417 131.922 84.5307 134.811 84.5307C138.866 84.5307 142.92 85.1972 146.975 85.475C149.03 85.5305 151.196 85.4194 153.474 85.4194ZM96.707 59.7023C87.7088 59.0357 81.3211 60.6465 76.0999 64.5346C69.0457 69.8114 67.1573 78.3097 71.1565 86.2526C73.2116 90.3629 76.711 92.0292 81.2101 90.9739C87.4311 89.5297 91.7079 85.6971 94.0963 79.865C96.7069 73.644 97.4847 67.1453 96.707 59.7023Z" fill="#D4C3F2"/>
</svg>
