<svg width="106" height="90" viewBox="0 0 106 90" fill="none" xmlns="http://www.w3.org/2000/svg">
<path d="M105.951 42.5809C106.006 53.1344 101.952 62.0771 94.953 69.6312C84.5106 80.9067 71.291 87.6276 56.1273 88.9052C37.6865 90.4604 22.1338 83.4618 10.0806 69.3534C7.96986 66.8539 6.19243 63.91 4.80382 60.9661C-0.917288 48.9129 -0.583857 37.0265 8.02557 26.6396C18.3013 14.1976 30.4656 4.08845 47.1846 1.47785C57.8492 -0.188487 68.5138 -0.632871 78.9007 3.25526C95.453 9.47626 106.173 25.0288 105.951 42.5809ZM45.0184 54.7452C45.2961 51.9679 45.7404 50.5794 45.4626 49.2463C45.3516 48.5242 44.185 47.5244 43.4074 47.4689C41.6855 47.3023 40.5748 48.6908 41.1303 50.1349C41.6857 51.5235 43.1299 52.5234 45.0184 54.7452ZM15.0243 39.8037C14.8576 41.6367 14.5799 42.5809 14.7465 43.5252C14.8021 44.0251 15.6352 44.3584 16.0796 44.8027C16.4128 44.0806 17.135 43.303 16.9683 42.692C16.8572 41.9144 16.0241 41.1923 15.0243 39.8037ZM91.3982 32.9717C90.9539 31.3609 90.9537 30.2499 90.3982 29.5834C89.8983 28.9724 88.8985 28.8058 88.1209 28.4725C88.1764 29.4168 87.8989 30.5277 88.3433 31.2497C88.7321 31.9718 89.843 32.194 91.3982 32.9717ZM59.0155 75.63C59.5154 75.3523 60.0154 75.0745 60.5153 74.7413C59.8488 74.5746 59.1822 74.408 58.5156 74.3525C58.1824 74.3525 57.8492 74.6302 57.5159 74.7413C58.0159 75.019 58.5156 75.3523 59.0155 75.63Z" fill="#D4C3F2"/>
</svg>
