<svg xmlns="http://www.w3.org/2000/svg" viewBox="0 0 500 500"><g id="freepik--Floor--inject-178"><path id="freepik--floor--inject-178" d="M90,443.85C1.59,399.5,1.59,327.6,90,283.25s231.68-44.35,320.06,0,88.38,116.25,0,160.6S178.36,488.2,90,443.85Z" style="fill:#f5f5f5"></path></g><g id="freepik--Character--inject-178"><g id="freepik--character--inject-178"><path id="freepik--line--inject-178" d="M181.25,378.63a16.65,16.65,0,0,0,3.74,3.66,34,34,0,0,0,4.68,2.88,53.32,53.32,0,0,0,9.84,4.19,22.36,22.36,0,0,0,10.71.7,11.29,11.29,0,0,0,4.74-2.18,7.29,7.29,0,0,0,2.54-4.7c.29-1.78.17-3.66.88-5.36a6.44,6.44,0,0,1,2.77-3c3-1.71,6.45-1.38,9.57-.32,1.88.65,3.68,1.51,5.49,2.33s3.75,1.62,5.66,2.33a58.23,58.23,0,0,0,12.31,3.2c3.73.51,7.8.71,11.33-.79,2.92-1.25,5.48-4.24,5.29-7.56a6,6,0,0,0-.73-2.58,1,1,0,0,0-1-.62.62.62,0,0,0-.44.82c.86,3.13-1.22,6.39-4,7.74-3.27,1.58-7.08,1.32-10.58.88a55,55,0,0,1-11.58-2.9c-1.84-.66-3.64-1.39-5.43-2.17s-3.49-1.58-5.29-2.23c-3.26-1.17-6.82-1.86-10.18-.67a9.46,9.46,0,0,0-3.72,2.33,7.75,7.75,0,0,0-2,4.41c-.25,1.72-.12,3.54-.78,5.17a6.46,6.46,0,0,1-3.29,3.24c-3.05,1.49-6.68,1.41-10,.84a42.15,42.15,0,0,1-9.52-3.13c-3.21-1.39-6.56-2.77-9.21-5.1a18.21,18.21,0,0,1-1.73-1.67c-.13-.15-.26.16-.18.26Z" style="fill:#455a64"></path><g id="freepik--Bottom--inject-178"><path d="M408.84,374.58a11.41,11.41,0,0,1,1.2,5.86c-.1,1.77-1.16,4.06-.68,8.05s1.39,5.25,1.81,8.08a9.9,9.9,0,0,1-1.55,7.5c-1.65,2.68-5.3,4.81-12.5,4.55-5.82-.21-8.16-3.19-8.29-6.61Z" style="fill:#263238"></path><path d="M407.15,366.29a13.68,13.68,0,0,1,.35,2.26c.22,1.35.62,2.64.94,4q.13.53.24,1.05c.56,2.67,0,5.44,0,8.16a45.49,45.49,0,0,0,1.68,9.51c1.31,5.65,1.52,9.43-3.43,13.35-2.61,2.06-5.46,2.14-8.77,2.23-2.51.06-5.8-.67-7.28-1.77-2.12-1.56-2.09-2.87-2.11-3.37-.19-6,2-13,2.41-19a29.28,29.28,0,0,0,.11-4.86c-.2-2-.9-4-1.11-6a3.37,3.37,0,0,1,.28-2.2,3.51,3.51,0,0,1,2.66-1.2c2.64-.35,5.28-.61,7.92-.8a2.42,2.42,0,0,1,1.8.36,3.27,3.27,0,0,1,.66,1.92c.14.68.64,1.44,1.32,1.32a1.15,1.15,0,0,0,.8-1c.07-.45.26-3.93.24-4.38C405.9,365.87,406.84,365.72,407.15,366.29Z" style="fill:#37474f"></path><path d="M319.72,386.22a4.49,4.49,0,0,0,0,3.3c.42,1,5.34,4,12.15,3.85A28.26,28.26,0,0,0,346.17,389c2.66-1.61,5.37-1.82,8.74-1.88s7.32-1.27,8.47-2.8a8,8,0,0,0,0-4.54Z" style="fill:#263238"></path><path d="M344.34,366.11a14.58,14.58,0,0,0-.71,1.49,12.09,12.09,0,0,1-3.74,4.67,38.44,38.44,0,0,1-7.52,4.06c-1.67.74-3.43,1-5.12,1.55a29.08,29.08,0,0,0-5.51,2.42c-2.74,1.69-3.27,6.19-.3,8.09,2.55,1.65,9.38,3.59,16.7,1.84,4-1,8.52-5,13.71-5.18,3.3-.13,9.55-.8,11.77-3.21.82-3.6-.07-4.63-.81-7.69a25.29,25.29,0,0,1-.62-5.27c0-.94.62-3.61-1.34-3.94l-.2,2s-.37.68-2.4,1c-.66.11-1.18,1-1.54,1.77-.27.61-.56,1.38-1.23,1.37a1.24,1.24,0,0,1-1-.8,9.41,9.41,0,0,1-.38-1.31,5.13,5.13,0,0,0-3.08-3,15.46,15.46,0,0,0-3.62-.76c-.93-.14-1.7-.55-2.53.25A2.93,2.93,0,0,0,344.34,366.11Z" style="fill:#37474f"></path><path d="M396.08,212.18c2.52,24.59,3.52,36.28,6.75,85.34a141.29,141.29,0,0,1,4.92,28.2c.7,11.91,2.39,47.8,2.39,47.8s-9.6,7.88-20.72,4.24c0,0-10.05-52.74-13.56-69.2-3.36-15.8-6.77-35.65-6.77-35.65l-1.58,24.61s.45,9.8.14,24.43c-.17,7.83-3.94,50.19-3.94,50.19s-13.47,6.12-22.56-1.74c0,0-.66-68.69-.79-75.78-.16-8.07,1.23-89.38,1.23-89.38Z" style="fill:#BA68C8"></path><path d="M396.08,212.18c2.52,24.59,3.52,36.28,6.75,85.34a141.29,141.29,0,0,1,4.92,28.2c.7,11.91,2.39,47.8,2.39,47.8s-9.6,7.88-20.72,4.24c0,0-10.05-52.74-13.56-69.2-3.36-15.8-6.77-35.65-6.77-35.65l-1.58,24.61s.45,9.8.14,24.43c-.17,7.83-3.94,50.19-3.94,50.19s-13.47,6.12-22.56-1.74c0,0-.66-68.69-.79-75.78-.16-8.07,1.23-89.38,1.23-89.38Z" style="opacity:0.15"></path><path d="M369.09,272.91l-6-33.49s-10.64-.93-16.52-6.86c0,0,1.05,5.82,14.42,9.31l5.43,27.94,1.14,27.71Z" style="opacity:0.25"></path><path d="M409.83,367a21.86,21.86,0,0,1-14.77,5.32s9.18-1.36,14.67-7.42Z" style="opacity:0.25"></path><path d="M364.15,367.14s-9.38,3.28-17.3.78c0,0,6.11,4.11,17.17.73Z" style="opacity:0.25"></path></g><g id="freepik--Arm--inject-178"><path d="M340,143.4C336,149,324.1,171.28,321,177.87L300.15,161.2c-1.72-2.19-1.71-6.77-4.66-11.11-3.26-4.8-1.94-9.52-4.28-8.88-1.29.35-2.06,2-2,3.42,0,2.77,1.32,6.25.23,6-1.63-.58-2.85-2.43-5-5.2-.9-1.14-3-5.74-4.17-7.78a1.8,1.8,0,0,0-3.2-.21c-.3.64-.51,2.1-.8,2.71a6.11,6.11,0,0,1-1.24,1.25,6.18,6.18,0,0,0-1.29,1.21c-.9,1.39-.06,2.92-.4,4.41-.68,3.06.32,6.17,1.79,8.84.66,1.21,1.3,2.46,2,3.62a26.28,26.28,0,0,0,5.79,6.3c2,1.65,4.34,2.56,6.25,4.31s7.36,8.1,11.5,12.6c6.83,7.44,12.85,14.34,15,15.73,5.33,3.46,10.25,4,16.09-2.83,7-8.2,20.07-29.1,20.07-29.1l2.8-28.8S344.66,136.67,340,143.4Z" style="fill:#9e6767"></path><path d="M355.25,137.66c-6.19-.94-11.42.23-15.29,4.66s-14.49,26-16.08,28-3,2.74-3.19,4.4a2.66,2.66,0,0,0,.74,2.36c2.9.45,12.06,15.26,8.69,20.28l-1.56,1.36a3.06,3.06,0,0,0,3.92,0c2.11-1.62,4.61-6.38,7.48-10.5s15.29-21.07,15.29-21.07Z" style="fill:#263238"></path><path d="M321.43,177l-1.12.27s3.86,4.21,5,12.53c.61,4.58-.08,9.87-1.41,11.12,0,0,1.36.51,3.6-1.06a28.18,28.18,0,0,0,3.45-2.78,15.7,15.7,0,0,0-1.21-11C326.8,179.93,323.72,177.7,321.43,177Z" style="fill:#37474f"></path></g><g id="freepik--Pencil--inject-178"><path d="M293.84,326.6l-22.7,46.26a1.56,1.56,0,0,1-2.94-.38L258,321.66Z" style="fill:#ffa8a7"></path><path d="M268.2,372.48a1.56,1.56,0,0,0,2.94.38l4.44-9h0a8.67,8.67,0,0,1-8.9-1.63l-.66-.59Z" style="fill:#455a64"></path><path d="M286,106.09l-.61,4.73-.76,5.71L258,321.66c3.24,4.81,8.58,7.73,14.21,9,8.56,2,17.82.29,21.6-4.08l26.56-205,1.41-10.91C320.48,117.69,284.74,113.14,286,106.09Z" style="fill:#BA68C8"></path><path d="M286,106.09l-.61,4.73-.76,5.71L258,321.66c3.24,4.81,8.58,7.73,14.21,9,8.56,2,17.82.29,21.6-4.08l26.56-205,1.41-10.91C320.48,117.69,284.74,113.14,286,106.09Z" style="fill:#fff;opacity:0.5"></path><path d="M283.57,124.09l-1.35,10.57c-.49,3.05,5.78,5.85,13.22,7.5,9.89,2.21,22,1,22.67-3l1-7.78.31-2.79c-.66,4-12.78,5.26-22.67,3.05-7.13-1.59-13.21-4.26-13.21-7.16v0A.52.52,0,0,1,283.57,124.09Z" style="fill:#ebebeb"></path><path d="M283.25,126.73c-1.15,7.08,34.71,11.53,35.87,4.45l1.38-10.57c-1.15,7.08-37,2.63-35.86-4.45Z" style="fill:#BA68C8"></path><path d="M286,106.09l-1.37,10.44c-1.19,6.94,33.38,11.53,35.79,5.06a2,2,0,0,0,.11-.39l1.3-10.52C320.48,117.69,284.74,113.14,286,106.09Z" style="fill:#ebebeb"></path><path d="M320.38,121.59l1.41-10.91c-.59,3.17-8.21,4.62-16.36,3.88L277.36,331.5l-6.22,41.36,22.7-46.26h0Z" style="opacity:0.1"></path><path d="M327.65,65.5c0-.12.07-.23.08-.35.58-4.59-7-9.33-16.87-10.58s-18.37,1.44-19,6h0L286,106.09c-.51,3,5.68,5.83,13.06,7.51,9.87,2.24,22,1.09,22.77-2.92,0,0,0,0,0,0l5.78-44.44c0-.21,0-.4.06-.61Z" style="fill:#f28f8f"></path><path d="M313,54.9l-7.56,59.67c8.08.66,15.78-.72,16.36-3.89,0,0,0,0,0,0l5.78-44.44c0-.21,0-.4.06-.61V65.5c0-.12.07-.23.08-.35C328.27,60.89,321.81,56.52,313,54.9Z" style="opacity:0.1"></path><path d="M327.73,65.15c-.58,4.59-9.08,7.29-19,6s-17.45-6-16.87-10.58,9.08-7.3,19-6S328.31,60.56,327.73,65.15Z" style="fill:#ffa8a7"></path></g><g id="freepik--Chest--inject-178"><path d="M397.28,216.94s.57,4.44-.16,5.58-14.35,4.75-32.06,3-23.06-6.39-23.68-7.43-.51-3.43,0-6.05Z" style="fill:#263238"></path><path d="M340.92,159.73c1-16.33,8.11-22.26,15.4-22.09l19.13-1.28c4.09,1.06,16.87,4.13,22.44,5.8s5.62,14.16,4.33,22.43-4,14.56-4.79,28.47c.22,13.17,3.57,20.11.32,23.6-11.9,7.55-44.05,5.05-56.62-2.52-2.66-1.31.08-11.32-.18-19.42C340.51,180.82,340.62,165,340.92,159.73Z" style="fill:#37474f"></path><path d="M398.33,142.32c6.72.71,8.23,1.92,10.21,5s5.74,15.32,6.44,22c-3.94,11.18-19.86,6-19.86,6Z" style="fill:#263238"></path><path d="M360.87,137.22s-6.57,6-4.38,11.53,11.68,6.55,19.09,1.26,6.76-11.48,6.76-11.48l-2.79-.86a9.23,9.23,0,0,1-1.53,3.78c-1.17,1.4-15.93,7.31-16.23,9,0,0-1.84-4.26-2-5.9a20.32,20.32,0,0,1,1-6.17Z" style="fill:#fafafa"></path></g><g id="freepik--Head--inject-178"><path d="M347.61,98.57c-.18,3.15.2,5.44,2.51,7.62a93.15,93.15,0,0,0,13.2,10.66,53.7,53.7,0,0,0,7.49,4.07,30,30,0,0,0,8.21,1.93l-.78,7.09s.94-1.83,2.21-4c1.1-1.88,5.78-11.49,5.78-11.49,1.84-3.78,4.07-7.71,4.13-12,0-2.85-1.23-5.9-3.78-7.17.11-5.93-5.06-10.71-9.78-12.46a27.62,27.62,0,0,0-12.75-1.51,20.27,20.27,0,0,0-11.64,5.23C350.66,88.1,348,91.32,347.61,98.57Z" style="fill:#263238"></path><path d="M374.71,97.05a14.15,14.15,0,0,0,4.09,8,25.86,25.86,0,0,0-.69,8.61,4.7,4.7,0,0,0,.55,1.76,2.11,2.11,0,0,0,1.47,1c.82.11,1.19-.38,1.49-1a20.79,20.79,0,0,1,1.4-2.35,4.84,4.84,0,0,1,.79-.89c1.33-1.09,5.16-2.31,6.67,1.78s-2.06,9.5-5.12,10.17c-5.29,1.16-6.22-2.44-6.22-2.44l-2,18.5c-3,2.79-12,6.9-15.31,10.22-1.25-2.46-4.19-7-1-12.07l.09-6.1a43.33,43.33,0,0,1-8.37-.89c-2.67-.68-4.45-3.24-5.43-7.4-1.9-8.1.09-18.94,1.36-23.8a15.93,15.93,0,0,1,4.41-7.75.94.94,0,0,1,1.46.24,8.27,8.27,0,0,0,5.52,3.65c3.2.65,8.48.17,12.52-.83A1.9,1.9,0,0,1,374.71,97.05Z" style="fill:#9e6767"></path><path d="M360.88,132.28c4.83-.17,8.3-.63,11.08-1.91a10.18,10.18,0,0,0,4.44-3.67s-.35,1.9-3.06,4.29c-3.06,2.69-12.48,3-12.48,3Z" style="fill:#874c4c"></path><path d="M365.81,111.16a1.66,1.66,0,1,0,1.81-1.57A1.68,1.68,0,0,0,365.81,111.16Z" style="fill:#263238"></path><path d="M367.77,104.08a10.92,10.92,0,0,1,4.2,3,2.72,2.72,0,0,0-.61-3.72A2.52,2.52,0,0,0,367.77,104.08Z" style="fill:#263238"></path><path d="M364.73,121.32l-6,1.27a3,3,0,0,0,3.59,2.48A3.22,3.22,0,0,0,364.73,121.32Z" style="fill:#874c4c"></path><path d="M364.06,122.64a2.78,2.78,0,0,0-2.74,2.46,2.89,2.89,0,0,0,1,0,3.17,3.17,0,0,0,2.37-2.31A3,3,0,0,0,364.06,122.64Z" style="fill:#f28f8f"></path><path d="M351.76,104a7.51,7.51,0,0,1,4.2,2.82,2.44,2.44,0,0,0-.67-3.44A2.58,2.58,0,0,0,351.76,104Z" style="fill:#263238"></path><path d="M351.22,109.23a1.67,1.67,0,1,0,1.82-1.59A1.7,1.7,0,0,0,351.22,109.23Z" style="fill:#263238"></path><polygon points="360.79 107.18 359.38 119.28 353.37 116.5 360.79 107.18" style="fill:#874c4c"></polygon><path d="M361.79,150.45c2.19-1.16,4.64-4.42,6.54-1.64s3.22,6,4.78,5.6,6.91-4.78,9.09-8.77a18.49,18.49,0,0,0,1.95-7s-1.67-2.13-3.06-3.79c-1.55-1.83-1.79-2.31-3.12-2.49l-.5,4.57a6.93,6.93,0,0,1-3.11,4.38C370.46,143.73,364.89,144.66,361.79,150.45Z" style="fill:#ebebeb"></path><path d="M361.79,150.45c-1.18-1.23-4.73-4.91-6.82-4.45s-4.35,4.36-4.34,3.26,2.47-7.66,4.16-9.88,4.67-4.38,6-4.53l0,3.53a20.22,20.22,0,0,0-1.08,5C359.74,146.33,361.64,148.63,361.79,150.45Z" style="fill:#ebebeb"></path></g><g id="freepik--Hand--inject-178"><path d="M397,136.13a24.94,24.94,0,0,1-2.81-9.36c-.22-3.8-2.47-7.66-3.18-9.21s-2.45-4-3.69-6.19-1.61-2.84-3.84-3.66c-3.07-1.12-5.46-2.08-6.77-1.93s-1.42,1-.55,2.26,3.09,2,3.76,2.33,2.08,1.3,2.08,1.3l2.13,4.86a43.6,43.6,0,0,0-6.21.34c-1.08.35-2.38,2.72-2.21,4.18,0,0-2.05.9-1.67,2.83,0,0-1.38,1.24-.84,2.57a19.62,19.62,0,0,0,2.35,3.83c.51.64,2.88,1.21,2.88,1.21a22.11,22.11,0,0,0,2.93,5c1.47,1.58,2.61,1.7,4,4.69Z" style="fill:#9e6767"></path><path d="M381.77,116.56c-1.08-.73-1.19-1.57-2.38-1.36s-1,1.57-1,1.57Z" style="fill:#874c4c"></path><path d="M375.69,121.17a11.18,11.18,0,0,1,2.7-1.11c.89-.25,2.7-.53,2.7-.53a12.48,12.48,0,0,0-3.6.18,9.94,9.94,0,0,0-1.78.51,3,3,0,0,0,0,.83Z" style="fill:#874c4c"></path><path d="M375.22,122.81a8.45,8.45,0,0,0-1.25.37,3.39,3.39,0,0,0,0,.83c.82-.8,3.48-1.36,3.48-1.36A10.48,10.48,0,0,0,375.22,122.81Z" style="fill:#874c4c"></path><path d="M378.71,132.22a23.84,23.84,0,0,0-1.7-4.35,1.81,1.81,0,0,0-2.38-.68c-.4.42,1.22.65,1.65.95A15.8,15.8,0,0,1,378.71,132.22Z" style="fill:#874c4c"></path><path d="M385.47,116.65s-.67-1.45-1.92-3.79-1.2-2-2.73-2.64-4.41-1.69-5.05-2.79a4.43,4.43,0,0,0,.35.61c.85,1.26,3.09,2,3.76,2.33s2.08,1.3,2.08,1.3l2.19,5Z" style="fill:#874c4c"></path><path d="M397,136.13c4.13,7.39,15.58,25.45,17.75,32.19C416.21,173,415,183,412,186.1s-9.4.41-13.93-5.35c-3.91-5-6-15.55-8-23.19s-4.68-16.33-4.68-16.33Z" style="fill:#9e6767"></path><path d="M397,136.13a34.61,34.61,0,0,1-2.27-5.74,18.6,18.6,0,0,1-.56-3,15.42,15.42,0,0,0-.47-3,28.11,28.11,0,0,0-2.3-5.7,44.22,44.22,0,0,0-3.09-5.33c-.55-.87-1.07-1.78-1.57-2.67a5.2,5.2,0,0,0-2-2.19,25.44,25.44,0,0,0-2.84-1.13c-1-.35-1.94-.71-2.92-1a4.3,4.3,0,0,0-2.88-.16c-.41.2-.37.71-.16,1.15a3.5,3.5,0,0,0,.85,1.19,9.64,9.64,0,0,0,2.63,1.47,16.36,16.36,0,0,1,2.69,1.58l0,0,0,0,2.11,4.86.1.23h-.25a54.17,54.17,0,0,0-5.56.21c-.95,0-1.54.79-2,1.56a4.8,4.8,0,0,0-.72,2.58v.09l-.08,0a3.31,3.31,0,0,0-1.29,1.08,2.16,2.16,0,0,0-.32,1.6l0,.07-.05,0a2.45,2.45,0,0,0-.89,2.22,11.68,11.68,0,0,0,1.19,2.3c.23.37.48.74.73,1.09s.47.75.85.93a10.32,10.32,0,0,0,2.44.89h0l0,.05c.4.92.83,1.83,1.32,2.71a12,12,0,0,0,1.7,2.46c.68.74,1.53,1.3,2.21,2.05a9.28,9.28,0,0,1,1.6,2.55,9.72,9.72,0,0,0-1.63-2.52c-.69-.73-1.55-1.27-2.25-2a11.87,11.87,0,0,1-1.76-2.46,29.81,29.81,0,0,1-1.36-2.71l.06.06a11.51,11.51,0,0,1-2.5-.9,3.14,3.14,0,0,1-.91-1c-.26-.36-.51-.73-.74-1.1a11,11,0,0,1-1.23-2.36,2.71,2.71,0,0,1,.94-2.47l0,.12a2.41,2.41,0,0,1,.35-1.79,3.62,3.62,0,0,1,1.39-1.18l-.08.14a5.07,5.07,0,0,1,.73-2.75,5.3,5.3,0,0,1,.87-1.14,1.94,1.94,0,0,1,.62-.42,3.89,3.89,0,0,1,.72-.16c1.87-.21,3.74-.21,5.61-.24l-.15.23-2.14-4.85.06.08a16.27,16.27,0,0,0-2.63-1.54,9.76,9.76,0,0,1-2.73-1.55,4,4,0,0,1-.93-1.31,1.87,1.87,0,0,1-.18-.83.93.93,0,0,1,.49-.75,2.59,2.59,0,0,1,1.61-.2A9.71,9.71,0,0,1,379,106c1,.3,2,.66,2.93,1a26.32,26.32,0,0,1,2.88,1.17,5.44,5.44,0,0,1,2.1,2.31c.51.9,1,1.79,1.55,2.67a43.76,43.76,0,0,1,3.08,5.36,28.79,28.79,0,0,1,2.27,5.75,15.24,15.24,0,0,1,.43,3.07,18.28,18.28,0,0,0,.52,3A33.52,33.52,0,0,0,397,136.13Z" style="fill:#874c4c"></path></g></g><g id="freepik--Idea--inject-178"><g id="freepik--idea--inject-178"><g id="freepik--Light--inject-178"><path d="M396.09,88.91A2.2,2.2,0,1,1,395,86,2.2,2.2,0,0,1,396.09,88.91Z" style="fill:#37474f"></path><path d="M391.64,87c-1-1.37-.41-2.61,1.26-2.77a5.84,5.84,0,0,1,4.8,2.2c1,1.37.4,2.61-1.27,2.76A5.81,5.81,0,0,1,391.64,87Z" style="fill:#455a64"></path><path d="M391.89,86.27c-1-1.41-.42-2.69,1.31-2.85a6,6,0,0,1,4.94,2.26c1,1.41.42,2.69-1.31,2.86A6,6,0,0,1,391.89,86.27Z" style="fill:#37474f"></path><path d="M392.16,85.5c-1-1.46-.44-2.78,1.34-3a6.23,6.23,0,0,1,5.1,2.34c1,1.45.43,2.77-1.35,2.94A6.21,6.21,0,0,1,392.16,85.5Z" style="fill:#455a64"></path><path d="M392.43,84.69c-1.07-1.5-.45-2.85,1.39-3a6.4,6.4,0,0,1,5.25,2.4c1.06,1.5.44,2.86-1.39,3A6.41,6.41,0,0,1,392.43,84.69Z" style="fill:#37474f"></path><path d="M392.74,83.86c-1.08-1.53-.45-2.91,1.42-3.09a6.51,6.51,0,0,1,5.36,2.45c1.09,1.53.45,2.92-1.42,3.09A6.51,6.51,0,0,1,392.74,83.86Z" style="fill:#455a64"></path><path d="M406.08,61.8A10.48,10.48,0,0,0,392.19,67c-3.45,7.56,2.21,11.67.82,14.72a1.78,1.78,0,0,0,.34,1.78A5.67,5.67,0,0,0,398,85.6a1.8,1.8,0,0,0,1.58-.91h0c1.39-3,8.21-1.44,11.66-9A10.47,10.47,0,0,0,406.08,61.8Z" style="fill:#BA68C8"></path><g style="opacity:0.6000000000000001"><path d="M406.08,61.8A10.48,10.48,0,0,0,392.19,67c-3.45,7.56,2.21,11.67.82,14.72a1.78,1.78,0,0,0,.34,1.78A5.67,5.67,0,0,0,398,85.6a1.8,1.8,0,0,0,1.58-.91h0c1.39-3,8.21-1.44,11.66-9A10.47,10.47,0,0,0,406.08,61.8Z" style="fill:#fff"></path></g><path d="M394.12,83.32c-.71-1-.3-1.9.92-2a4.27,4.27,0,0,1,3.5,1.6c.71,1,.29,1.9-.93,2A4.25,4.25,0,0,1,394.12,83.32Z" style="fill:#BA68C8"></path><path d="M397.71,83.46a.36.36,0,0,1-.18-.47,25.15,25.15,0,0,1,3.16-5.14,12.61,12.61,0,0,1,1.16-1.29,5.13,5.13,0,0,1-.64-.78,6.31,6.31,0,0,1-.78-1.65,5.91,5.91,0,0,1-1.74.49,5.09,5.09,0,0,1-1,0,13.28,13.28,0,0,1-.21,1.73,25.42,25.42,0,0,1-1.83,5.74.36.36,0,0,1-.47.17.37.37,0,0,1-.17-.48,24.61,24.61,0,0,0,1.77-5.57,12.85,12.85,0,0,0,.21-1.72,2.22,2.22,0,0,1-1.56-1.36,1.14,1.14,0,0,1,.47-1.4.93.93,0,0,1,1.05,0,2.68,2.68,0,0,1,.75,2.13,4.07,4.07,0,0,0,.92,0,5.84,5.84,0,0,0,1.68-.49,2.6,2.6,0,0,1,.36-2,1,1,0,0,1,1.73.79,2.6,2.6,0,0,1-1.3,1.6,5.44,5.44,0,0,0,.73,1.59,3.88,3.88,0,0,0,.59.7,2.73,2.73,0,0,1,2.11-.82.94.94,0,0,1,.71.77,1.15,1.15,0,0,1-.75,1.27,2.25,2.25,0,0,1-2-.29,12.18,12.18,0,0,0-1.17,1.29,25.54,25.54,0,0,0-3.06,5,.36.36,0,0,1-.47.19Zm-1.24-11.11a.24.24,0,0,0-.24,0,.46.46,0,0,0-.15.56,1.44,1.44,0,0,0,.88.82c-.06-.79-.25-1.24-.45-1.38ZM403,76.52a1.46,1.46,0,0,0,1.2.13c.09,0,.38-.19.32-.47s-.11-.21-.18-.23A2,2,0,0,0,403,76.52ZM401.5,71.8a.22.22,0,0,0-.32.06,1.69,1.69,0,0,0-.24,1.17,1.71,1.71,0,0,0,.73-.94A.23.23,0,0,0,401.5,71.8Z" style="fill:#fff"></path></g><path d="M407.8,58.2l-.18-.05a.69.69,0,0,1-.34-.91L408.74,54a.68.68,0,0,1,1.25.56l-1.47,3.25A.67.67,0,0,1,407.8,58.2Z" style="fill:#e0e0e0"></path><path d="M400,56.94a.69.69,0,0,1-.58-.61l-.36-3.55a.68.68,0,1,1,1.36-.14l.36,3.55a.68.68,0,0,1-.61.75A.48.48,0,0,1,400,56.94Z" style="fill:#e0e0e0"></path><path d="M392.65,59.73a.71.71,0,0,1-.45-.27l-2.08-2.9a.67.67,0,0,1,.15-1,.7.7,0,0,1,1,.15l2.08,2.9a.68.68,0,0,1-.66,1.07Z" style="fill:#e0e0e0"></path><path d="M387.67,65.84a.64.64,0,0,1-.18-.06l-3.25-1.46a.68.68,0,0,1,.56-1.25l3.26,1.47a.69.69,0,0,1-.39,1.3Z" style="fill:#e0e0e0"></path><path d="M412.54,87.32a.65.65,0,0,1-.45-.27L410,84.15a.68.68,0,0,1,.16-1,.68.68,0,0,1,.95.15l2.09,2.9a.68.68,0,0,1-.16,1A.65.65,0,0,1,412.54,87.32Z" style="fill:#e0e0e0"></path><path d="M418.69,79.79l-.18-.05-3.25-1.47a.67.67,0,0,1-.34-.9.68.68,0,0,1,.9-.35l3.25,1.47a.68.68,0,0,1,.35.9A.7.7,0,0,1,418.69,79.79Z" style="fill:#e0e0e0"></path><path d="M416.69,70.55a.69.69,0,0,1,0-1.36l3.55-.36a.68.68,0,0,1,.75.61.68.68,0,0,1-.61.75l-3.55.36A.54.54,0,0,1,416.69,70.55Z" style="fill:#e0e0e0"></path><path d="M413.9,63.18a.69.69,0,0,1-.3-1.23l2.9-2.09a.68.68,0,0,1,.95.16.67.67,0,0,1-.15.95l-2.89,2.09A.69.69,0,0,1,413.9,63.18Z" style="fill:#e0e0e0"></path></g><g id="freepik--Shine--inject-178"><path d="M403.52,103.8a.46.46,0,0,1-.22-.58l.17-.41a2.31,2.31,0,0,0-1-2.89l-.38-.23a.47.47,0,0,1-.17-.6.45.45,0,0,1,.58-.22L403,99h0a2.32,2.32,0,0,0,2.88-1l.23-.38a.45.45,0,0,1,.6-.17h0a.45.45,0,0,1,.22.58l-.17.41a2.33,2.33,0,0,0,.95,2.89l.38.23a.46.46,0,0,1-.41.82l-.41-.17a2.32,2.32,0,0,0-2.89,1l-.23.38a.46.46,0,0,1-.6.17Zm.52-3.67a3.28,3.28,0,0,1,.53,1.6,3.31,3.31,0,0,1,1.59-.53,3.19,3.19,0,0,1-.52-1.59A3.26,3.26,0,0,1,404,100.13Z" style="fill:#BA68C8"></path><path d="M416.3,102.25a2.94,2.94,0,1,1,3.95-1.3A2.94,2.94,0,0,1,416.3,102.25Zm2.24-4.43a2,2,0,1,0,.89,2.72A2,2,0,0,0,418.54,97.82Z" style="fill:#BA68C8"></path><path d="M414.83,110.59a.45.45,0,0,1-.2-.62l.69-1.36a.45.45,0,1,1,.81.41l-.69,1.37A.46.46,0,0,1,414.83,110.59Z" style="fill:#BA68C8"></path><path d="M413.6,111l-1.37-.69a.46.46,0,0,1-.2-.61.45.45,0,0,1,.62-.2l1.36.69a.45.45,0,1,1-.41.81Z" style="fill:#BA68C8"></path><path d="M413.27,113.67a.47.47,0,0,1-.2-.62l.69-1.36a.47.47,0,0,1,.62-.21.47.47,0,0,1,.2.62l-.69,1.37A.46.46,0,0,1,413.27,113.67Z" style="fill:#BA68C8"></path><path d="M416.68,112.55l-1.37-.69a.46.46,0,0,1,.42-.82l1.36.69a.47.47,0,0,1,.21.62A.47.47,0,0,1,416.68,112.55Z" style="fill:#BA68C8"></path></g><g id="freepik--shine--inject-178"><path d="M375.34,62.28a.45.45,0,0,1-.57-.25l-.18-.41a2.34,2.34,0,0,0-2.74-1.33l-.43.12a.46.46,0,0,1-.3-.87l.41-.17h0a2.34,2.34,0,0,0,1.33-2.74l-.12-.43a.46.46,0,0,1,.87-.3l.17.41a2.33,2.33,0,0,0,2.74,1.32l.43-.11a.46.46,0,0,1,.3.87l-.41.17a2.33,2.33,0,0,0-1.32,2.74l.11.43A.47.47,0,0,1,375.34,62.28Zm-2.28-2.93a3.28,3.28,0,0,1,1.52.74,3.1,3.1,0,0,1,.73-1.51,3.2,3.2,0,0,1-1.51-.74A3.2,3.2,0,0,1,373.06,59.35Z" style="fill:#BA68C8"></path><path d="M373.5,73.87a2.94,2.94,0,1,1,1.82-3.74A2.94,2.94,0,0,1,373.5,73.87Zm-1.63-4.69A2,2,0,1,0,373.2,73a2,2,0,1,0-1.33-3.82Z" style="fill:#BA68C8"></path><path d="M360.71,64.88a.46.46,0,0,1-.59-.28l-.5-1.45a.46.46,0,0,1,.28-.58.47.47,0,0,1,.59.28l.5,1.45A.46.46,0,0,1,360.71,64.88Z" style="fill:#BA68C8"></path><path d="M360.14,66.05l-1.45.5a.45.45,0,0,1-.58-.28.47.47,0,0,1,.28-.59l1.45-.5a.46.46,0,0,1,.58.28A.46.46,0,0,1,360.14,66.05Z" style="fill:#BA68C8"></path><path d="M361.84,68.14a.46.46,0,0,1-.59-.28l-.5-1.44a.46.46,0,1,1,.87-.31l.5,1.45A.45.45,0,0,1,361.84,68.14Z" style="fill:#BA68C8"></path><path d="M363.4,64.92l-1.45.5a.46.46,0,0,1-.58-.28.47.47,0,0,1,.28-.59l1.45-.5a.45.45,0,0,1,.58.28A.46.46,0,0,1,363.4,64.92Z" style="fill:#BA68C8"></path></g></g></g></svg>