<svg width="707" height="79" viewBox="0 0 707 79" fill="none" xmlns="http://www.w3.org/2000/svg">
<path d="M424.064 47.8399C420.103 43.7081 417.781 40.9722 415.049 38.3479C409.039 32.5411 402.756 26.7343 397.019 20.8716C394.697 18.4707 392.921 15.9021 391.828 13.3895C388.55 5.18168 400.98 -0.569291 421.196 0.0448971C429.255 0.324073 437.45 1.2176 444.826 2.44598C456.573 4.40021 468.047 6.68929 479.111 9.25771C545.769 24.6124 614.475 38.292 684.138 51.0783C689.875 52.1391 695.748 53.2559 700.939 54.7634C706.676 56.4385 708.178 58.9511 706.129 61.7428C704.49 64.0879 700.802 65.7629 695.065 66.1538C689.875 66.4888 684.001 66.6565 679.084 66.0423C670.342 65.0372 662.01 63.5296 653.677 62.022C590.708 50.2966 528.558 37.9013 468.457 23.8867C459.168 21.7091 450.29 18.9732 439.499 18.6382C434.855 20.5366 436.904 22.3233 438.68 23.9425C444.963 29.6936 452.202 35.3329 457.803 41.1956C461.081 44.6015 463.676 48.2865 464.223 51.9158C465.179 58.1135 455.48 62.9153 440.455 63.362C429.801 63.697 418.6 63.1946 408.219 62.0779C364.646 57.2202 325.17 48.9567 289.929 37.343C278.592 33.602 267.392 29.805 255.645 26.2316C243.351 22.4906 230.648 18.8614 215.896 17.0746C210.432 18.7497 212.891 20.5364 214.667 22.0998C223.409 29.4701 232.833 36.6728 241.029 44.1547C246.219 48.8449 251 53.8144 253.596 58.8396C258.786 69.3924 241.985 78.3819 215.759 78.9403C204.149 79.2194 192.129 78.4934 180.791 77.3208C149.648 73.9707 121.51 67.8848 95.1474 60.4587C64.2773 51.8043 36.9585 41.3629 11.0058 30.4192C7.86411 29.0792 4.99572 27.6276 2.53704 26.0642C-1.28758 23.6633 -0.604811 20.704 3.3564 18.8056C7.4542 16.9072 15.1035 16.1813 20.8404 17.6889C27.6701 19.4756 34.2268 21.5416 40.5101 23.6634C55.8085 28.9677 70.5603 34.4952 85.9954 39.6879C114.953 49.4591 146.506 57.4994 182.43 62.3571C193.494 63.8646 204.695 65.7631 217.808 62.9713C217.125 60.8496 217.398 58.5602 215.486 56.7177C209.476 50.9108 202.509 45.2716 195.953 39.5205C188.987 33.4903 181.611 27.4601 175.191 21.3182C172.459 18.6381 170.41 15.623 170.137 12.7196C169.317 6.74524 179.562 1.66417 194.041 1.21749C203.739 0.938316 214.12 1.44072 223.545 2.50159C242.122 4.62333 258.513 8.75519 273.811 13.4454C289.11 18.0797 303.862 23.105 319.16 27.7951C351.943 37.8455 382.13 43.7081 424.064 47.8399Z" fill="#F6D26F"/>
</svg>
